HIERARCHY
ROOT Hips
{
  OFFSET -0.303405 17.6945 -0.630407
  CHANNELS 6 Xposition Yposition Zposition Zrotation Xrotation Yrotation
  JOINT LHipJoint
  {
    OFFSET 0 0 0
    CHANNELS 3 Zrotation Xrotation Yrotation
    JOINT LeftUpLeg
    {
      OFFSET 1.8 -1.4 0.085
      CHANNELS 3 Zrotation Xrotation Yrotation
      JOINT LeftLeg
      {
        OFFSET 2.21502 -6 -0.000122411
        CHANNELS 3 Zrotation Xrotation Yrotation
        JOINT LeftFoot
        {
          OFFSET 2.5 -6.9 0
          CHANNELS 3 Zrotation Xrotation Yrotation
          JOINT LeftToeBase
          {
            OFFSET 0.2 -0.500001 1.95
            CHANNELS 3 Zrotation Xrotation Yrotation
            End Site
            {
              OFFSET 0 0 1
            }
          }
        }
      }
    }
  }
  JOINT RHipJoint
  {
    OFFSET 0 0 0
    CHANNELS 3 Zrotation Xrotation Yrotation
    JOINT RightUpLeg
    {
      OFFSET -1.8 -1.4 0.085
      CHANNELS 3 Zrotation Xrotation Yrotation
      JOINT RightLeg
      {
        OFFSET -2.21498 -6.00001 0
        CHANNELS 3 Zrotation Xrotation Yrotation
        JOINT RightFoot
        {
          OFFSET -2.5 -6.9 0
          CHANNELS 3 Zrotation Xrotation Yrotation
          JOINT RightToeBase
          {
            OFFSET -0.2 -0.500001 1.95
            CHANNELS 3 Zrotation Xrotation Yrotation
            End Site
            {
              OFFSET 0 0 1
            }
          }
        }
      }
    }
  }
  JOINT LowerBack
  {
    OFFSET 0 0 0
    CHANNELS 3 Zrotation Xrotation Yrotation
    JOINT Spine
    {
      OFFSET -0.087 1.94 -0.2889
      CHANNELS 3 Zrotation Xrotation Yrotation
      JOINT Spine1
      {
        OFFSET 0 1.95 0.06
        CHANNELS 3 Zrotation Xrotation Yrotation
        JOINT Neck
        {
          OFFSET 0 0 0
          CHANNELS 3 Zrotation Xrotation Yrotation
          JOINT Neck1
          {
            OFFSET 0 1.6 0.34
            CHANNELS 3 Zrotation Xrotation Yrotation
            JOINT Head
            {
              OFFSET 0 1.667 -0.24
              CHANNELS 3 Zrotation Xrotation Yrotation
              End Site
              {
                OFFSET 0 1.686 -0.12
              }
            }
          }
        }
        JOINT LeftShoulder
        {
          OFFSET 0 0 0
          CHANNELS 3 Zrotation Xrotation Yrotation
          JOINT LeftArm
          {
            OFFSET 2.7 1.55 -0.730001
            CHANNELS 3 Zrotation Xrotation Yrotation
            JOINT LeftForeArm
            {
              OFFSET 5.45001 0.000187676 0.000106411
              CHANNELS 3 Zrotation Xrotation Yrotation
              JOINT LeftHand
              {
                OFFSET 3.45 0 0
                CHANNELS 3 Zrotation Xrotation Yrotation
                JOINT LeftFingerBase
                {
                  OFFSET 0 0 0
                  CHANNELS 3 Zrotation Xrotation Yrotation
                  JOINT LeftHandIndex1
                  {
                    OFFSET 0.750001 0 0
                    CHANNELS 3 Zrotation Xrotation Yrotation
                    End Site
                    {
                      OFFSET 0.6 0 0
                    }
                  }
                }
                JOINT LThumb
                {
                  OFFSET 0 0 0
                  CHANNELS 3 Zrotation Xrotation Yrotation
                  End Site
                  {
                    OFFSET 0.59 0 0.59
                  }
                }
              }
            }
          }
        }
        JOINT RightShoulder
        {
          OFFSET 0 0 0
          CHANNELS 3 Zrotation Xrotation Yrotation
          JOINT RightArm
          {
            OFFSET -2.7 1.55 -0.730001
            CHANNELS 3 Zrotation Xrotation Yrotation
            JOINT RightForeArm
            {
              OFFSET -5.45 0 0
              CHANNELS 3 Zrotation Xrotation Yrotation
              JOINT RightHand
              {
                OFFSET -3.45 0 0
                CHANNELS 3 Zrotation Xrotation Yrotation
                JOINT RightFingerBase
                {
                  OFFSET 0 0 0
                  CHANNELS 3 Zrotation Xrotation Yrotation
                  JOINT RightHandIndex1
                  {
                    OFFSET -0.750001 0 0
                    CHANNELS 3 Zrotation Xrotation Yrotation
                    End Site
                    {
                      OFFSET -0.6 0 0
                    }
                  }
                }
                JOINT RThumb
                {
                  OFFSET 0 0 0
                  CHANNELS 3 Zrotation Xrotation Yrotation
                  End Site
                  {
                    OFFSET -0.59 0 0.59
                  }
                }
              }
            }
          }
        }
      }
    }
  }
}
MOTION
Frames:	12
Frame Time:	0.0416667
-2.65743 17.948 8.04697 -1.83318 -10.298 92.0663 6.89673e-34 4.96962e-17 -7.95139e-16 -17.9794 -11.2366 4.4436 -2.1058 22.8154 7.04446 5.24485 -5.59568 -2.20155 6.36111e-15 -2.54444e-14 -5.56597e-15 6.89673e-34 4.96962e-17 -7.95139e-16 14.9439 -21.2343 -4.38699 2.36393 28.2957 20.5269 5.21448 1.54868 0.992873 8.30406e-07 6.44062e-14 1.94014e-13 6.89673e-34 4.96962e-17 -7.95139e-16 -1.35993 10.5099 -10.2624 12.1467 -0.231061 -12.9211 7.5992 -10.3541 -0.00526233 8.35188 26.4934 -2.33995 -16.6108 -0.110126 10.4647 -2.44158 0.215362 1.47111 -48.3195 -35.2851 -33.8446 -14.6749 5.67858 -49.7741 2.34502 -1.02226 8.27236 -1.76556e-31 -3.18055e-15 -3.18055e-15 -7.95139e-16 0 -1.78906e-15 7.95139e-16 -3.18055e-15 -9.93923e-16 31.2131 -4.78746 -16.3064 56.1468 -39.1639 -12.0847 -15.8277 64.9182 0.836445 4.01977 -0.25878 -1.66724 -2.64834e-31 3.18055e-15 4.77083e-15 4.20015e-09 1.16722e-07 2.08087e-07 -2.64834e-31 3.18055e-15 4.77083e-15 
-2.39599 17.6786 8.48734 -0.81421 -9.23335 98.77 1.59028e-15 -1.98785e-16 -0 -18.2576 -10.8057 5.17894 -2.0156 24.5552 11.303 5.04702 -13.5234 -4.77578 -6.36111e-15 -2.62396e-14 -3.18055e-15 1.59028e-15 -1.98785e-16 -0 16.4895 -19.375 -3.93185 3.99183 32.242 15.7994 3.9944 -3.08543 3.18054 8.30406e-07 5.96354e-14 1.94014e-13 1.59028e-15 -1.98785e-16 -0 -2.64865 10.6878 -9.6477 12.3422 -1.23728 -12.2989 6.92645 -10.4495 0.0997221 7.56768 26.4252 -2.01635 -15.8822 0.490558 10.038 -1.94225 0.222694 1.31085 -46.9892 -37.0687 -36.0437 -9.72922 10.618 -43.1655 -1.0722 -0.788243 5.38594 -3.18055e-15 0 -6.36111e-15 1.76556e-30 1.27222e-14 -7.95139e-15 -1.59028e-15 -3.18055e-15 -3.97569e-15 30.4764 -4.26947 -15.1554 55.6897 -39.695 -9.6697 -19.2 63.5236 5.12251 0.431028 -0.197424 -1.40893 1.46604e-15 7.95139e-16 1.31726e-14 4.20015e-09 1.16722e-07 2.08087e-07 1.41634e-15 7.95139e-16 1.31757e-14 
-2.11432 17.2014 8.88423 0.0136209 -8.6583 102.229 1.59028e-15 0 -0 -17.0946 -12.5787 6.29119 -3.10756 30.7878 16.2369 3.81906 -24.6965 -8.80036 -3.18055e-15 -2.54444e-14 -0 1.59028e-15 0 -0 19.0098 -18.8661 -1.77437 6.99906 38.4977 7.73143 2.0131 -4.4186 3.81433 8.30406e-07 6.36111e-14 1.94014e-13 1.59028e-15 0 -0 -2.5065 10.659 -8.31646 10.9684 -1.65041 -10.6386 6.503 -10.3055 0.388847 6.99284 26.5872 -1.56766 -16.0767 -0.284957 10.4658 -1.27 0.162397 1.80698 -43.4305 -38.7027 -34.6896 -7.94373 13.9027 -40.3311 -3.77523 -0.555675 3.51429 4.77083e-15 9.54166e-15 3.18055e-15 -1.59028e-15 3.18055e-15 1.59028e-15 4.77083e-15 9.54166e-15 3.18055e-15 29.5343 -3.3449 -12.8834 56.6742 -41.1769 -4.90891 -20.5203 61.3861 6.50598 -2.90325 -0.378286 -2.94754 -1.59028e-15 1.19271e-15 1.39149e-15 4.20015e-09 1.16722e-07 2.08087e-07 -1.59028e-15 7.95139e-16 1.39149e-15 
-1.82622 16.7176 9.21045 1.83162 -7.76841 105.912 1.59028e-15 0 -3.18055e-15 -16.1363 -14.7844 5.9142 -4.22685 40.2695 19.263 2.90697 -31.3566 -11.73 -3.18055e-15 -2.38542e-14 -6.36111e-15 1.59028e-15 0 -3.18055e-15 21.0796 -14.6884 -4.62973 7.34513 37.0683 -2.56231 -7.20901 -20.2555 8.14269 8.30406e-07 6.20208e-14 1.87653e-13 1.59028e-15 0 -3.18055e-15 -1.87262 11.2462 -7.13508 9.12808 -1.84132 -9.063 5.93229 -9.72193 0.785783 6.22625 27.1916 -0.957033 -16.3722 -1.92508 11.1015 -0.660733 0.102426 2.36882 -39.2535 -40.2711 -32.3909 -6.40396 17.2862 -38.05 -5.26625 -0.0678638 0.788025 -5.29669e-31 9.54166e-15 3.18055e-15 3.18055e-15 3.18055e-15 3.18055e-15 -3.18055e-15 9.54166e-15 3.18055e-15 27.7478 -2.29769 -10.2844 58.7697 -42.5837 0.382973 -21.5735 58.761 8.0626 -4.54615 -0.330075 -2.60698 -3.18055e-15 -2.98177e-16 1.98785e-15 4.20015e-09 1.16722e-07 2.08087e-07 -3.18055e-15 -2.98177e-16 1.98785e-15 
-1.59079 16.2063 9.47453 5.38707 -8.88459 107.715 0 0 -0 -11.3555 -22.5105 4.31425 -12.2401 58.2546 28.0796 2.60656 -26.3081 -10.343 -1.32417e-30 -2.38542e-14 -3.18055e-15 0 0 -0 26.2841 -12.3797 -4.18136 7.77436 40.1923 -10.1063 -11.5633 -28.9633 9.38995 8.30406e-07 6.12257e-14 1.90833e-13 0 0 -0 2.66684 15.8022 -4.9533 7.21471 -4.90267 -5.83361 4.6477 -9.20761 1.32231 4.60613 27.7405 0.0376822 -17.333 -2.82974 11.5273 -0.655301 0.0570112 2.86681 -38.0033 -41.3249 -29.6522 -4.39851 18.6331 -38.7913 -4.27441 -0.076278 0.842943 -3.18055e-15 -3.18055e-15 3.18055e-15 3.18055e-15 -6.36111e-15 -1.27222e-14 -3.18055e-15 -3.18055e-15 3.18055e-15 25.4926 -1.34206 -7.72105 60.5532 -43.4551 6.22239 -20.4382 51.5947 11.1511 -6.05782 -0.289053 -2.18916 0 7.95139e-16 -0 4.20015e-09 1.16722e-07 2.08087e-07 0 7.95139e-16 -0 
-1.46133 15.7748 9.56538 8.58396 -10.3274 108.372 4.77083e-15 -3.97569e-16 -0 -7.47867 -32.4369 0.520872 -39.3496 71.8235 53.959 0.343192 -11.5854 -5.72374 -3.18055e-15 -2.70347e-14 -9.54166e-15 4.77083e-15 -3.97569e-16 -0 25.3501 -13.6011 -5.23508 16.8855 47.0479 -16.2295 -10.8571 -31.1767 10.6474 8.30406e-07 6.12257e-14 1.90833e-13 4.77083e-15 -3.97569e-16 -0 8.39256 21.2437 -3.29772 5.86407 -7.64216 -2.7883 3.33034 -8.92174 2.02337 2.86891 28.0477 1.23569 -19.8836 -4.08219 12.4536 -1.22017 -0.0123094 3.6325 -38.4372 -42.2773 -22.8616 -6.33419 13.135 -45.294 -2.14034 -0.387718 2.61674 3.18055e-15 0 9.54166e-15 -3.53113e-31 -6.36111e-15 -3.18055e-15 -0 0 9.54166e-15 22.6209 -0.126335 -3.93222 63.8513 -43.5345 15.6413 -20.8459 49.1617 12.7091 -7.10419 -0.0980105 0.0585957 -4.41391e-32 -1.59028e-15 -1.59028e-15 4.20015e-09 1.16722e-07 2.08087e-07 -4.41391e-32 -1.59028e-15 -1.59028e-15 
-1.2416 15.8616 9.67258 10.3489 -7.83229 109.799 1.59028e-15 -1.98785e-15 3.18055e-15 -6.91789 -36.0405 0.654715 -53.6343 73.0026 67.3169 -0.426932 -7.6145 -4.58141 -3.18055e-15 -2.38542e-14 -7.95139e-15 1.59028e-15 -1.98785e-15 3.18055e-15 23.5525 -11.4632 -8.55698 14.9971 47.4806 -15.731 -2.09175 -29.1096 12.088 8.30406e-07 6.12257e-14 1.94014e-13 1.59028e-15 -1.98785e-15 3.18055e-15 7.51425 24.5963 -1.37976 4.60477 -8.27402 -0.486333 3.38505 -8.79462 2.21176 2.85464 28.1723 1.43165 -20.6413 -4.21488 13.2589 -1.09593 -0.0392952 3.9667 -37.1802 -43.3146 -18.7579 -7.51453 11.6713 -45.6522 -2.3913 -0.623076 4.05658 -1.76556e-31 -3.18055e-15 -3.18055e-15 8.82781e-32 1.59028e-15 -3.18055e-15 -1.76556e-31 -3.18055e-15 -3.18055e-15 21.3275 0.73331 -0.860582 64.7531 -41.0686 21.73 -18.8077 44.7867 15.7217 -8.13181 -0.077067 0.654209 3.18055e-15 -3.18055e-15 -7.95139e-15 4.20016e-09 1.16722e-07 2.08087e-07 3.18055e-15 -3.18055e-15 -7.95139e-15 
-0.985515 16.0586 9.7062 9.64266 -6.14007 109.936 6.62086e-32 1.19271e-15 -3.18055e-15 -7.17769 -39.1903 2.89006 -44.9143 70.6638 62.6597 -0.489493 -8.83358 -4.6266 -9.54166e-15 -2.38542e-14 -0 6.62086e-32 1.19271e-15 -3.18055e-15 23.7518 -9.46904 -8.54143 10.8966 45.1107 -13.6497 -0.640664 -27.77 11.7082 8.30406e-07 5.88403e-14 1.90833e-13 6.62086e-32 1.19271e-15 -3.18055e-15 7.22955 25.4809 0.971404 1.63559 -9.56888 2.33113 3.23782 -8.71894 2.19396 2.69954 28.2501 1.45807 -19.9059 -3.71339 13.0974 -0.821146 -0.0400909 3.94014 -37.6108 -45.0564 -18.8486 -3.74817 16.6841 -38.4463 -3.43549 0.309791 -1.50613 3.18055e-15 6.36111e-15 6.36111e-15 0 7.95139e-16 -0 3.18055e-15 6.36111e-15 7.95139e-15 20.4236 1.27534 1.24026 63.6377 -38.0843 24.3065 -21.8067 47.7661 18.7342 -9.17762 0.0786651 3.65675 -6.36111e-15 -3.18055e-15 3.18055e-15 4.20015e-09 1.16722e-07 2.08087e-07 -6.36111e-15 -3.18055e-15 3.18055e-15 
-0.588771 16.3749 9.66383 5.84412 -3.93015 114.066 -1.19271e-15 -1.98785e-16 -0 -13.0341 -40.7233 0.921713 -25.7244 62.5834 49.3436 -0.509115 -11.4245 -5.0908 -6.36111e-15 -1.90833e-14 -0 -1.19271e-15 -1.98785e-16 -0 22.6364 -9.23298 -8.97271 6.96827 40.5621 -12.7317 0.924976 -24.9727 10.5181 8.30406e-07 6.20208e-14 1.87653e-13 -1.19271e-15 -1.98785e-16 -0 4.59597 22.8709 2.54033 0.65144 -10.3762 3.3986 2.36925 -9.18985 2.12458 1.7612 27.7892 1.64669 -18.7381 -1.83376 11.916 -1.53655 -0.0724204 4.24497 -37.6301 -44.1992 -16.8848 -3.82899 16.5795 -40.387 -3.26396 -0.170688 1.30472 3.18055e-15 4.57205e-15 7.95139e-16 -5.51738e-32 -3.97569e-15 -7.95139e-16 -1.269e-31 4.57205e-15 1.59028e-15 17.8933 1.27799 1.69983 62.699 -34.6883 24.0342 -23.7014 48.5661 24.1224 -10.1042 0.265434 7.98739 1.59028e-15 -9.54166e-15 -3.18055e-15 4.20015e-09 1.16722e-07 2.08087e-07 1.59028e-15 -9.54166e-15 -3.18055e-15 
-0.127135 16.755 9.57792 2.27418 -3.11077 120.485 3.97569e-16 3.97569e-16 -6.36111e-15 -19.0368 -38.3613 -1.86299 -11.0447 47.9925 42.0001 -2.224 -15.0086 -5.87313 1.59028e-15 -2.54444e-14 -6.36111e-15 3.97569e-16 3.97569e-16 -6.36111e-15 21.2878 -9.15617 -10.0792 5.83342 35.3381 -12.3954 3.02764 -17.8562 7.72713 8.30406e-07 6.20208e-14 1.94014e-13 3.97569e-16 3.97569e-16 -6.36111e-15 2.4674 19.5839 3.03783 0.0579971 -10.8873 3.49605 1.86376 -9.50383 1.98648 1.25649 27.4804 1.64584 -16.8145 -0.104431 10.8597 -1.79093 -0.07412 4.23632 -38.7109 -43.7364 -17.3067 -2.34383 18.1883 -40.1469 -4.18263 0.128938 -0.367857 -4.31046e-34 -9.93923e-17 -2.48481e-16 -1.36447e-31 6.05051e-15 1.2921e-15 3.70699e-33 -9.93923e-17 2.13694e-15 16.4327 1.07124 1.11645 60.9511 -30.2365 20.612 -23.5419 42.871 33.529 -10.294 0.28835 8.85271 -3.57812e-15 0 5.26779e-15 4.20014e-09 1.16722e-07 2.08087e-07 -3.44146e-15 0 5.59082e-15 
0.346586 17.0891 9.39067 0.237197 -3.34142 125.5 -3.97569e-16 -7.95139e-16 -0 -19.6749 -33.0128 0.476145 -7.09 31.458 38.2699 -3.84046 -16.384 -6.21029 1.59028e-15 -2.54444e-14 -3.18055e-15 -3.97569e-16 -7.95139e-16 -0 20.2676 -8.63205 -10.2374 5.34993 32.7306 -8.96163 6.37607 -8.29338 4.01591 8.30406e-07 6.04305e-14 1.97194e-13 -3.97569e-16 -7.95139e-16 -0 1.43779 16.2569 3.49724 -0.46622 -9.90567 3.82284 1.23736 -9.75884 2.0207 0.550626 27.2275 1.87559 -14.7366 1.7524 10.2237 -1.92098 -0.0752911 4.26957 -39.1628 -43.3689 -16.7138 -0.397658 20.349 -40.0224 -5.02721 0.337916 -1.40773 3.18055e-15 3.37934e-15 -2.38542e-15 -2.20695e-32 -3.97569e-16 -3.18055e-15 3.18055e-15 3.37934e-15 -0 15.1195 0.953539 0.835186 60.0445 -26.1689 18.4828 -21.4625 37.6625 39.6424 -9.25889 0.394471 9.07732 7.95139e-16 0 -4.77083e-15 4.20015e-09 1.16722e-07 2.08087e-07 7.95139e-16 0 -4.77083e-15 
0.807928 17.1285 9.1137 -0.552635 -3.26909 130.285 -0 0 3.18055e-15 -18.2095 -28.5751 5.52787 -9.45173 22.4639 37.9015 -3.62617 -14.6966 -5.56417 -3.18055e-15 -2.3059e-14 -7.95139e-15 -0 0 3.18055e-15 18.9005 -11.0229 -8.71527 7.192 36.95 -7.89696 8.95811 3.85109 -1.36049 8.30406e-07 5.96354e-14 1.94014e-13 -0 0 3.18055e-15 0.150166 14.0651 3.47934 -0.316773 -8.99178 3.6372 1.27747 -9.37707 2.10211 0.562163 27.6083 1.95915 -14.574 2.48875 10.7322 -1.59112 -0.0755648 4.27052 -38.4656 -43.4738 -15.1074 2.24587 23.741 -38.8366 -6.15969 0.698597 -3.08344 1.59028e-15 -1.11319e-14 -1.59028e-15 0 4.77083e-15 -0 1.59028e-15 -1.11319e-14 -1.59028e-15 14.7943 1.06344 1.40134 59.8301 -24.0192 18.9736 -23.4264 37.5274 43.317 -7.70143 0.87267 13.5663 7.15625e-15 0 -6.36111e-15 4.20015e-09 1.16722e-07 2.08087e-07 7.15625e-15 0 -6.36111e-15 
